<?xml version="1.0" encoding="UTF-8" standalone="no"?>
<svg
   xmlns:dc="http://purl.org/dc/elements/1.1/"
   xmlns:cc="http://creativecommons.org/ns#"
   xmlns:rdf="http://www.w3.org/1999/02/22-rdf-syntax-ns#"
   xmlns:svg="http://www.w3.org/2000/svg"
   xmlns="http://www.w3.org/2000/svg"
   id="svg3757"
   viewBox="0 0 4066 1073"
   style="shape-rendering:geometricPrecision; text-rendering:geometricPrecision; image-rendering:optimizeQuality; fill-rule:evenodd; clip-rule:evenodd"
   version="1.1"
   height="10.1268mm"
   width="38.3918mm"
   xml:space="preserve"><metadata
   id="metadata3761"><rdf:RDF><cc:Work
       rdf:about=""><dc:format>image/svg+xml</dc:format><dc:type
         rdf:resource="http://purl.org/dc/dcmitype/StillImage" /><dc:title></dc:title></cc:Work></rdf:RDF></metadata>
 <defs
   id="defs3740">
  <style
   id="style3738"
   type="text/css">
   <![CDATA[
    .fil0 {fill:#00A0E3}
    .fil1 {fill:#FEFEFE;fill-rule:nonzero}
    .fil2 {fill:#898989;fill-rule:nonzero}
   ]]>
  </style>
 </defs>
 <g
   id="Capa_x0020_1">
  <metadata
   id="CorelCorpID_0Corel-Layer" />
  <path
   id="path3743"
   d="M511 0l466 0c25,0 45,20 45,45l0 517c0,281 -230,511 -511,511l0 0c-281,0 -511,-230 -511,-511l0 -51c0,-281 230,-511 511,-511z"
   class="fil0" />
  <path
   id="path3745"
   d="M290 398c-19,42 -41,97 -41,154 0,123 74,241 155,241 136,0 373,-195 457,-413 10,-24 26,-72 26,-95 0,-4 -4,-6 -11,-6 -15,0 -133,4 -145,4 -19,2 -21,15 -23,21 -43,190 -197,404 -246,404 -17,0 -26,-47 -26,-76 0,-101 23,-172 104,-310 4,-6 5,-11 5,-17 0,-24 -39,-30 -89,-30 -124,0 -236,43 -236,70 0,8 8,16 22,18 24,4 50,8 50,25 0,3 -1,7 -2,10l0 0z"
   class="fil1" />
  <path
   id="path3747"
   d="M1104 186c0,-13 5,-24 14,-34 10,-10 22,-14 35,-14 14,0 25,4 35,14 9,10 14,22 14,35 0,14 -4,25 -14,35 -9,9 -21,14 -35,14 -13,0 -25,-5 -35,-14 -9,-10 -14,-21 -14,-36zm16 582l0 -392 67 0 0 392 -67 0z"
   class="fil2" />
  <path
   d="M1287 702l58 -38c11,21 24,36 41,47 17,10 36,15 59,15 22,0 40,-5 53,-16 14,-11 21,-25 21,-43 0,-14 -5,-25 -14,-34 -10,-9 -26,-18 -48,-25l-11 -4c-96,-33 -143,-74 -143,-124 0,-35 12,-63 38,-85 26,-22 59,-33 100,-33 35,0 64,6 88,20 24,14 42,33 52,58l-54 33c-8,-18 -20,-32 -36,-41 -15,-10 -33,-15 -54,-15 -20,0 -36,6 -48,16 -13,11 -19,26 -19,43 0,24 26,44 78,60 10,4 18,6 24,8 42,13 72,29 88,47 17,17 25,40 25,69 0,37 -13,68 -39,91 -27,23 -61,34 -104,34 -36,0 -67,-7 -93,-21 -26,-13 -46,-34 -62,-62z"
   class="fil2"
   id="1" />
  <path
   d="M1674 186c0,-13 5,-24 15,-34 9,-10 21,-14 35,-14 13,0 25,4 34,14 10,10 15,22 15,35 0,14 -5,25 -14,35 -10,9 -21,14 -35,14 -14,0 -26,-5 -35,-14 -10,-10 -15,-21 -15,-36zm16 582l0 -392 68 0 0 392 -68 0z"
   class="fil2"
   id="2" />
  <path
   d="M1939 573c0,42 14,77 42,106 27,29 61,43 101,43 39,0 72,-14 100,-43 27,-29 41,-64 41,-106 0,-41 -14,-76 -41,-105 -28,-29 -61,-43 -100,-43 -40,0 -74,14 -102,43 -27,29 -41,64 -41,105zm-71 0c0,-29 5,-56 16,-82 10,-25 26,-48 46,-68 20,-20 43,-35 69,-46 26,-10 53,-15 83,-15 28,0 55,5 81,15 26,11 49,26 70,47 20,20 35,42 46,68 11,25 16,53 16,81 0,29 -5,56 -16,81 -11,25 -26,48 -46,68 -21,20 -45,36 -71,47 -25,11 -52,16 -80,16 -29,0 -57,-5 -83,-16 -26,-11 -49,-26 -69,-46 -20,-21 -36,-44 -46,-69 -11,-25 -16,-52 -16,-81z"
   class="fil2"
   id="3" />
  <path
   d="M2399 768l0 -392 66 0 0 60c17,-25 37,-44 61,-56 24,-12 51,-18 82,-18 47,0 83,12 109,36 26,25 39,59 39,103l0 267 -68 0 0 -231c0,-40 -9,-69 -26,-88 -16,-20 -42,-29 -77,-29 -20,0 -38,3 -55,11 -16,7 -30,17 -41,31 -8,10 -14,22 -17,35 -4,13 -6,36 -6,68l0 203 -67 0z"
   class="fil2"
   id="4" />
  <polygon
   points="3130,362 3247,644 3353,376 3428,376 3254,793 3125,491 2996,793 2820,376 2895,376 3000,644 3119,362 "
   class="fil2"
   id="5" />
  <path
   d="M3484 186c0,-13 5,-24 15,-34 10,-10 21,-14 35,-14 13,0 25,4 35,14 9,10 14,22 14,35 0,14 -5,25 -14,35 -10,9 -21,14 -35,14 -14,0 -25,-5 -35,-14 -10,-10 -15,-21 -15,-36zm16 582l0 -392 68 0 0 392 -68 0z"
   class="fil2"
   id="6" />
  <path
   d="M3710 768l0 -392 65 0 0 60c17,-25 38,-44 61,-56 24,-12 52,-18 83,-18 46,0 82,12 108,36 26,25 39,59 39,103l0 267 -68 0 0 -231c0,-40 -9,-69 -25,-88 -17,-20 -43,-29 -78,-29 -20,0 -38,3 -54,11 -17,7 -31,17 -41,31 -9,10 -15,22 -18,35 -4,13 -6,36 -6,68l0 203 -66 0z"
   class="fil2"
   id="7" />
 <path
   transform="matrix(28.034318,0,0,28.034318,-0.92988603,0)"
   id="path3763"
   d="M 13.481572,28.081945 C 11.533848,27.408437 9.8278757,25.004591 9.2057656,22.057002 8.7150715,19.732069 8.9292612,17.86719 9.9923964,15.208073 c 0.2692466,-0.67344 0.4895386,-1.308316 0.4895386,-1.410836 0,-0.398579 -0.419693,-0.600533 -1.8664454,-0.898122 -0.3770835,-0.07756 -0.6821034,-0.343178 -0.6821034,-0.593981 0,-0.638226 1.9659328,-1.565748 4.3160908,-2.036322 1.486584,-0.2976588 2.486444,-0.3968554 4.028352,-0.3996539 1.462978,-0.00266 2.146706,0.090431 2.689669,0.3661849 0.640977,0.325531 0.627848,0.654241 -0.07479,1.872475 -2.507669,4.347824 -3.409422,7.236468 -3.293435,10.550078 0.05952,1.700359 0.395251,2.613609 0.960068,2.611552 0.588945,-0.0021 1.870995,-1.148608 3.129362,-2.798403 2.331017,-3.056107 4.325809,-6.994173 5.349152,-10.560155 0.519836,-1.811439 0.434789,-1.734286 1.98341,-1.799306 0.647455,-0.02718 1.93559,-0.0589 2.862522,-0.07049 l 1.685331,-0.02106 0.02544,0.307101 c 0.05653,0.682268 -0.844777,3.358729 -1.709942,5.077736 -1.26643,2.516285 -2.955921,4.7854 -5.294973,7.11155 -2.044682,2.033404 -3.810964,3.37738 -5.832046,4.437642 -2.093028,1.098005 -4.113406,1.529912 -5.276033,1.127885 z"
   style="stroke-width:0.08221126;fill:#000000" /><path
   transform="matrix(28.034318,0,0,28.034318,-0.92988603,0)"
   id="path3765"
   d="M 16.647779,38.174003 C 8.9776722,37.437349 2.5585373,31.975681 0.65574812,24.567313 0.18428265,22.731698 0.09053268,21.832401 0.09053268,19.14548 c 0,-1.850033 0.03244481,-2.604209 0.14482983,-3.366552 C 1.4241613,7.714938 7.4682717,1.5881163 15.579033,0.22528553 c 0.781365,-0.13129082 1.744113,-0.1478376 10.15309,-0.1745016 6.53229,-0.02071321 9.380284,-0.0029141 9.594459,0.05996238 0.411153,0.12070485 0.796846,0.46035615 0.979581,0.86264534 0.143658,0.31626405 0.150991,0.79888945 0.152442,10.03317435 9.62e-4,6.133103 -0.03022,10.04864 -0.0848,10.646357 -0.764731,8.375311 -7.21597,15.177012 -15.552976,16.397889 -1.10422,0.161702 -3.144835,0.221942 -4.17305,0.123191 z m -1.048225,-9.978769 c 4.143671,-0.792815 9.801502,-5.376597 13.127526,-10.635476 1.301446,-2.057756 2.355347,-4.426055 2.806441,-6.306558 0.201307,-0.839202 0.203685,-1.16232 0.0093,-1.2663406 -0.233979,-0.1252217 -5.582536,0.058339 -5.858533,0.2010636 -0.262788,0.135892 -0.324596,0.281165 -0.690079,1.621959 -0.411801,1.510711 -1.020278,3.087133 -1.863332,4.827458 -1.543806,3.186893 -3.194664,5.682974 -4.873417,7.368559 -1.15575,1.160454 -1.754324,1.425261 -2.114555,0.935475 -0.633022,-0.860686 -0.649513,-4.147655 -0.03244,-6.466079 0.441853,-1.660102 1.403728,-3.816894 2.725909,-6.112243 0.902338,-1.566492 0.883277,-1.92218 -0.123965,-2.313234 C 18.31016,9.8936491 18.043187,9.8658124 16.633985,9.8331022 14.86432,9.7920252 13.902051,9.8714062 12.30975,10.189823 c -1.900038,0.379954 -3.7752341,1.127079 -4.25253,1.694314 -0.4383302,0.520925 -0.1154243,0.960569 0.8359967,1.138229 1.0725675,0.200282 1.5064853,0.429402 1.5064853,0.795467 0,0.107871 -0.16251,0.592322 -0.361133,1.076557 -0.8261769,2.014189 -1.1188301,3.284966 -1.1183566,4.856204 8.55e-4,2.851188 0.9815334,5.447643 2.7069836,7.167063 1.27506,1.270606 2.294741,1.598554 3.972336,1.277577 z"
   style="fill:#ffffff;stroke-width:0.08221126" /><path
   transform="matrix(28.034318,0,0,28.034318,-0.92988603,0)"
   id="path3767"
   d="m 39.995776,20.378649 v -6.946851 h 1.192063 1.192063 v 6.946851 6.946851 h -1.192063 -1.192063 z"
   style="fill:#ffffff;stroke-width:0.08221126" /><path
   transform="matrix(28.034318,0,0,28.034318,-0.92988603,0)"
   id="path3769"
   d="M 40.692849,8.3041764 C 40.203997,8.1482604 39.929828,7.940576 39.713854,7.5625832 39.319853,6.8730094 39.381456,6.1354263 39.881878,5.5507956 c 0.538546,-0.6291699 1.549509,-0.773259 2.236337,-0.3187374 0.414847,0.2745324 0.755664,0.9325039 0.753149,1.4540057 -0.0054,1.1267154 -1.121082,1.9553735 -2.178515,1.6181125 z"
   style="fill:#ffffff;stroke-width:0.08221126" /><path
   transform="matrix(28.034318,0,0,28.034318,-0.92988603,0)"
   id="path3771"
   d="m 50.359374,27.899531 c -1.623052,-0.227515 -2.98149,-0.951384 -3.806689,-2.028466 -0.65432,-0.854042 -0.684784,-0.743438 0.400895,-1.455541 0.524175,-0.34381 0.982347,-0.625108 1.01816,-0.625108 0.03581,0 0.157561,0.157748 0.270551,0.350551 0.291646,0.497655 1.04893,1.185474 1.565659,1.42204 0.864616,0.395835 2.167665,0.467298 3.005637,0.16484 0.86595,-0.312556 1.404736,-1.039891 1.404736,-1.896325 0,-1.1318 -0.487232,-1.553182 -2.754077,-2.381862 -1.167758,-0.426891 -2.453568,-1.037225 -3.063563,-1.454178 -0.602297,-0.411691 -1.291995,-1.141627 -1.545268,-1.63542 -0.442538,-0.862795 -0.362538,-2.201903 0.192851,-3.228077 0.289785,-0.535425 1.126114,-1.300194 1.759391,-1.608848 0.893042,-0.43526 1.447004,-0.541532 2.779906,-0.533292 1.017555,0.0063 1.290287,0.03707 1.863033,0.210218 0.820456,0.248043 1.482185,0.631889 2.039703,1.183163 0.385239,0.380926 0.865517,1.07183 0.865517,1.245092 0,0.06806 -1.813435,1.209413 -1.840032,1.15809 -0.238444,-0.460125 -0.736494,-1.03046 -1.12839,-1.292158 -0.711441,-0.475082 -1.213349,-0.624312 -2.087571,-0.620688 -0.816019,0.0034 -1.248045,0.145023 -1.758737,0.576602 -0.572737,0.484013 -0.822459,1.450939 -0.532522,2.061934 0.310799,0.65496 1.042786,1.080878 2.994812,1.742577 1.734727,0.588038 2.398528,0.882566 3.071626,1.362879 0.933099,0.665846 1.360207,1.446006 1.426307,2.605313 0.130202,2.283544 -1.122834,3.965496 -3.392838,4.55421 -0.609439,0.158056 -2.040413,0.221796 -2.749097,0.122454 z"
   style="fill:#ffffff;stroke-width:0.08221126" /><path
   transform="matrix(28.034318,0,0,28.034318,-0.92988603,0)"
   id="path3773"
   d="M 61.079332,8.3261645 C 60.65648,8.2286677 60.181296,7.838452 59.962025,7.4086461 59.70499,6.9048162 59.770088,6.158997 60.112337,5.6865362 60.988768,4.4766574 62.859697,4.8600505 63.185594,6.316312 63.347618,7.0403144 63.043701,7.7580517 62.424048,8.1147922 62.002099,8.3577127 61.53476,8.4311724 61.079332,8.3261645 Z"
   style="fill:#ffffff;stroke-width:0.08221126" /><path
   transform="matrix(28.034318,0,0,28.034318,-0.92988603,0)"
   id="path3775"
   d="m 60.384167,20.378649 v -6.946851 h 1.150958 1.150957 v 6.946851 6.946851 h -1.150957 -1.150958 z"
   style="fill:#ffffff;stroke-width:0.08221126" /><path
   transform="matrix(28.034318,0,0,28.034318,-0.92988603,0)"
   id="path3777"
   d="m 73.169742,27.894584 c -2.37851,-0.328355 -4.590765,-1.939273 -5.692656,-4.145274 -1.026732,-2.055531 -1.027326,-4.592441 -0.0016,-6.659111 0.536224,-1.08036 1.643881,-2.320007 2.644237,-2.959328 1.919647,-1.226832 4.428142,-1.517846 6.66049,-0.772692 2.490441,0.831306 4.46109,3.098877 4.955619,5.702293 0.153895,0.810173 0.09973,2.551687 -0.102375,3.291247 -0.697884,2.553818 -2.921945,4.722037 -5.530666,5.3918 -0.746689,0.191704 -2.124632,0.262674 -2.933091,0.151065 z m 2.332819,-2.257493 c 1.503024,-0.354293 2.880845,-1.589685 3.463256,-3.105249 1.102685,-2.869441 -0.215277,-6.050167 -2.94301,-7.102558 -0.44371,-0.171189 -0.739967,-0.220877 -1.500424,-0.251653 -1.641438,-0.06643 -2.645256,0.311894 -3.746484,1.411991 -0.522609,0.522073 -0.739377,0.815189 -1.008569,1.363795 -0.785375,1.600578 -0.787573,3.413948 -0.0061,4.99942 0.625892,1.269757 1.957419,2.3665 3.25424,2.680427 0.641234,0.155228 1.836958,0.157068 2.48705,0.0038 z"
   style="fill:#ffffff;stroke-width:0.08221126" /><path
   transform="matrix(28.034318,0,0,28.034318,-0.92988603,0)"
   id="path3779"
   d="m 85.623023,20.378649 v -6.946851 h 1.150957 1.150958 l 0.0039,1.089299 0.0039,1.089299 0.216719,-0.287739 c 0.438661,-0.582411 1.344554,-1.380893 1.89453,-1.669897 0.962557,-0.50581 1.69316,-0.666529 3.019233,-0.664177 1.298818,0.0023 1.962786,0.12816 2.810502,0.532737 0.757038,0.361302 1.519632,1.105485 1.876918,1.831607 0.521374,1.059603 0.529982,1.170616 0.531568,6.854922 l 0.0014,5.117651 h -1.144421 -1.144422 l -0.03503,-4.624383 c -0.03022,-3.989851 -0.05398,-4.69673 -0.173138,-5.151634 -0.295828,-1.129358 -0.973089,-1.985014 -1.823943,-2.304383 -0.958004,-0.359589 -2.48499,-0.361195 -3.434873,-0.0036 -1.129965,0.425372 -2.015636,1.324183 -2.313097,2.347414 -0.206711,0.71106 -0.286,2.43573 -0.287938,6.263175 l -0.0018,3.473425 H 86.77398 85.623023 Z"
   style="fill:#ffffff;stroke-width:0.08221126" /><path
   transform="matrix(28.034318,0,0,28.034318,-0.92988603,0)"
   id="path3781"
   d="m 104.05938,21.46296 c -1.54839,-3.671072 -2.94372,-6.979886 -3.10073,-7.352919 l -0.28548,-0.678243 h 1.29903 1.29902 l 1.79271,4.583277 c 0.98599,2.520803 1.83821,4.673044 1.89382,4.782759 0.0962,0.189794 0.10491,0.19179 0.17967,0.0411 0.0432,-0.08711 1.00064,-2.350169 2.1276,-5.029029 1.7797,-4.230456 2.07161,-4.870701 2.22087,-4.871016 0.1498,-3.17e-4 0.43906,0.643804 2.2534,5.017821 1.14486,2.760001 2.10968,4.988954 2.14406,4.953228 0.0344,-0.03573 0.89344,-2.166186 1.90902,-4.734355 1.01559,-2.56817 1.86423,-4.687103 1.88587,-4.708741 0.0216,-0.02164 0.60911,-0.02913 1.3055,-0.01664 l 1.26616,0.0227 -3.0427,7.290061 c -1.67348,4.009534 -3.06229,7.309358 -3.08624,7.332942 -0.0239,0.02358 -1.05981,-2.340855 -2.30192,-5.25431 -1.2421,-2.913454 -2.28243,-5.29765 -2.31184,-5.298213 -0.0294,-5.63e-4 -1.0595,2.357412 -2.28909,5.239944 -1.22959,2.882532 -2.25989,5.266469 -2.28955,5.297638 -0.0297,0.03117 -1.32079,-2.946935 -2.86918,-6.618006 z"
   style="fill:#ffffff;stroke-width:0.08221126" /><path
   transform="matrix(28.034318,0,0,28.034318,-0.92988603,0)"
   id="path3783"
   d="m 124.92,20.378649 v -6.946851 h 1.19207 1.19206 V 20.378649 27.3255 H 126.11207 124.92 Z"
   style="fill:#ffffff;stroke-width:0.08221126" /><path
   transform="matrix(28.034318,0,0,28.034318,-0.92988603,0)"
   id="path3785"
   d="m 125.68935,8.3402554 c -1.34374,-0.329634 -1.78746,-1.9944722 -0.77529,-2.9089061 0.39783,-0.359412 0.81222,-0.4958019 1.36669,-0.4498207 0.59939,0.049706 1.02479,0.3431526 1.30101,0.8974551 0.25752,0.5167652 0.27845,1.0352151 0.0611,1.513688 -0.15358,0.3381079 -0.56279,0.7421945 -0.86848,0.8576077 -0.29686,0.1120798 -0.81857,0.1553425 -1.08504,0.089976 z"
   style="fill:#ffffff;stroke-width:0.08221126" /><path
   transform="matrix(28.034318,0,0,28.034318,-0.92988603,0)"
   id="path3787"
   d="m 132.40123,20.378649 v -6.946851 h 1.10985 1.10985 v 1.068746 c 0,0.587811 0.0307,1.068747 0.0683,1.068747 0.0376,0 0.11987,-0.09632 0.18287,-0.214042 0.063,-0.117723 0.41611,-0.499491 0.78468,-0.848373 0.74604,-0.70619 1.49644,-1.124789 2.45811,-1.371214 0.78866,-0.202092 2.65843,-0.206226 3.41177,-0.0075 1.35351,0.356972 2.44604,1.174215 2.94768,2.204945 0.54695,1.123853 0.5346,0.976959 0.56748,6.75147 l 0.0298,5.240967 h -1.19702 -1.19702 l -0.003,-4.418855 c -0.002,-3.360181 -0.0298,-4.569548 -0.11505,-5.04784 -0.30815,-1.727757 -1.26755,-2.67006 -2.90505,-2.853262 -2.60624,-0.291585 -4.53455,1.033096 -4.86893,3.344778 -0.0436,0.301689 -0.0801,2.444522 -0.081,4.761852 l -0.002,4.213327 h -1.15096 -1.15095 z"
   style="fill:#ffffff;stroke-width:0.08221126" /></g>
</svg>