<?xml version="1.0" encoding="UTF-8"?>
<!DOCTYPE svg PUBLIC "-//W3C//DTD SVG 1.1//EN" "http://www.w3.org/Graphics/SVG/1.1/DTD/svg11.dtd">
<!-- Creator: CorelDRAW X7 -->
<svg xmlns="http://www.w3.org/2000/svg" xml:space="preserve" width="19.1826mm" height="21.7047mm" version="1.1" style="shape-rendering:geometricPrecision; text-rendering:geometricPrecision; image-rendering:optimizeQuality; fill-rule:evenodd; clip-rule:evenodd"
viewBox="0 0 196 222"
 xmlns:xlink="http://www.w3.org/1999/xlink"
 enable-background="new 0 0 1000 1000">
 <defs>
  <style type="text/css">
   <![CDATA[
    .fil0 {fill:white}
   ]]>
  </style>
 </defs>
 <g id="Capa_x0020_1">
  <metadata id="CorelCorpID_0Corel-Layer"/>
  <g id="_1801636885536">
   <g>
    <path class="fil0" d="M57 129c-24,-42 1,-67 1,-67l-31 -45c-48,15 -18,98 -18,98 27,84 87,107 111,107 10,0 19,-10 19,-10l-30 -54c-8,5 -30,2 -52,-29z"/>
    <path class="fil0" d="M57 55c2,3 6,5 9,3l12 -8c3,-2 3,-6 1,-10l-25 -36c-3,-4 -7,-5 -9,-3l-12 8c-3,2 -3,6 -1,9l25 37z"/>
    <path class="fil0" d="M143 148c-2,-4 -7,-5 -10,-4l-15 9c-4,2 -5,6 -2,10l24 44c2,3 6,5 10,3l15 -8c3,-2 4,-7 2,-11l-24 -43z"/>
    <path class="fil0" d="M160 21c-29,-12 -62,3 -74,32 -11,30 4,62 33,74 29,11 62,-4 73,-33 12,-29 -3,-62 -32,-73zm-54 53c0,0 6,43 52,35 0,0 -60,24 -52,-35z"/>
    <path class="fil0" d="M165 141c-2,5 0,12 5,15 6,2 12,0 15,-6 2,-3 2,-6 0,-9 3,-6 0,-12 -5,-15 -6,-3 -12,0 -15,5 -1,3 -1,7 0,10z"/>
   </g>
  </g>
 </g>
</svg>
