<?xml version="1.0" encoding="UTF-8"?>
<!DOCTYPE svg PUBLIC "-//W3C//DTD SVG 1.1//EN" "http://www.w3.org/Graphics/SVG/1.1/DTD/svg11.dtd">
<!-- Creator: CorelDRAW X7 -->
<svg xmlns="http://www.w3.org/2000/svg" xml:space="preserve" width="20.6123mm" height="20.2443mm" version="1.1" style="shape-rendering:geometricPrecision; text-rendering:geometricPrecision; image-rendering:optimizeQuality; fill-rule:evenodd; clip-rule:evenodd"
viewBox="0 0 219 215"
 xmlns:xlink="http://www.w3.org/1999/xlink"
 enable-background="new 0 0 1000 1000">
 <defs>
  <style type="text/css">
   <![CDATA[
    .fil0 {fill:white}
   ]]>
  </style>
 </defs>
 <g id="Capa_x0020_1">
  <metadata id="CorelCorpID_0Corel-Layer"/>
  <g id="_2474434396320">
   <g>
    <g>
     <g>
      <path class="fil0" d="M90 0l-63 0c-15,0 -27,12 -27,27l0 63 23 0 0 -63c0,-2 2,-4 4,-4l63 0 0 -23z"/>
      <path class="fil0" d="M192 0l-63 0 0 23 63 0c2,0 4,2 4,4l0 63 23 0 0 -63c0,-15 -12,-27 -27,-27z"/>
      <path class="fil0" d="M23 188l0 -63 -23 0 0 63c0,15 12,27 27,27l63 0 0 -23 -63 0c-2,0 -4,-2 -4,-4z"/>
      <path class="fil0" d="M196 188c0,2 -2,4 -4,4l-63 0 0 23 63 0c15,0 27,-12 27,-27l0 -63 -23 0 0 63z"/>
      <path class="fil0" d="M146 82c0,-21 -16,-37 -36,-37 -21,0 -37,16 -37,37 0,12 6,24 16,30 -12,0 -24,10 -26,22l-2 11c-3,12 5,22 17,22l63 0c12,0 20,-10 17,-22l-2 -11c-2,-12 -14,-22 -26,-22 10,-6 16,-18 16,-30z"/>
     </g>
    </g>
    <g>
    </g>
    <g>
    </g>
    <g>
    </g>
    <g>
    </g>
    <g>
    </g>
    <g>
    </g>
    <g>
    </g>
    <g>
    </g>
    <g>
    </g>
    <g>
    </g>
    <g>
    </g>
    <g>
    </g>
    <g>
    </g>
    <g>
    </g>
    <g>
    </g>
   </g>
  </g>
 </g>
</svg>
