<?xml version="1.0" encoding="UTF-8"?>
<!DOCTYPE svg PUBLIC "-//W3C//DTD SVG 1.1//EN" "http://www.w3.org/Graphics/SVG/1.1/DTD/svg11.dtd">
<!-- Creator: CorelDRAW X7 -->
<svg xmlns="http://www.w3.org/2000/svg" xml:space="preserve" width="210mm" height="297mm" version="1.1" style="shape-rendering:geometricPrecision; text-rendering:geometricPrecision; image-rendering:optimizeQuality; fill-rule:evenodd; clip-rule:evenodd"
viewBox="0 0 21000 29700"
 xmlns:xlink="http://www.w3.org/1999/xlink"
 xmlns:xml="http://www.w3.org/XML/1998/namespace">
 <defs>
  <style type="text/css">
   <![CDATA[
    .fil0 {fill:#33CC99}
   ]]>
  </style>
 </defs>
 <g id="Capa_x0020_1">
  <metadata id="CorelCorpID_0Corel-Layer"/>
  <g id="_2002072931440">
   <path class="fil0" d="M20262 7070l-6125 0 -31 0 0 -1404c0,-565 -489,-1008 -1050,-952l-12196 1211c-489,49 -860,459 -860,952l0 15953c0,492 371,906 860,952l12196 1204c561,56 1050,-387 1050,-952l0 -1394 6156 0c407,0 738,-332 738,-739l0 -14092c0,-411 -331,-739 -738,-739zm-6546 14011l0 -1322 1335 0 0 -1828 -1334 0 -1 0 0 -814 1335 0 0 -1827 -1334 0 -1 0 0 -814 1335 0 0 -1824 -1334 0 -1 0 0 -817 1335 0 0 -1825 -1334 0 -1 0 0 -1385 5725 0 0 12387 0 69 -5697 0 -28 0zm-1516 346l-1 1524 -10296 -1020 0 -14152 10297 -1021 0 14669z"/>
   <polygon class="fil0" points="5709,18125 8349,13766 9917,11185 9912,11185 9916,11178 7829,11375 7162,12625 6790,13314 5821,11565 4640,11678 4140,11723 4142,11726 4134,11726 5916,14771 4604,16984 4023,17957 4027,17957 4023,17964 "/>
   <polygon class="fil0" points="7976,15184 7974,15187 7970,15181 7051,16677 7954,18335 10080,18538 8620,16214 "/>
   <rect class="fil0" x="15685" y="10009" width="2380" height="1826"/>
   <rect class="fil0" x="15685" y="12650" width="2380" height="1826"/>
   <polygon class="fil0" points="15691,15291 15691,15291 15685,15291 15685,17117 18065,17117 18065,15291 15706,15291 "/>
   <rect class="fil0" x="15685" y="17932" width="2380" height="1826"/>
  </g>
 </g>
</svg>
