<?xml version="1.0" encoding="UTF-8"?>
<!DOCTYPE svg PUBLIC "-//W3C//DTD SVG 1.1//EN" "http://www.w3.org/Graphics/SVG/1.1/DTD/svg11.dtd">
<!-- Creator: CorelDRAW X7 -->
<svg xmlns="http://www.w3.org/2000/svg" xml:space="preserve" width="210mm" height="297mm" version="1.1" style="shape-rendering:geometricPrecision; text-rendering:geometricPrecision; image-rendering:optimizeQuality; fill-rule:evenodd; clip-rule:evenodd"
viewBox="0 0 21000 29700"
 xmlns:xlink="http://www.w3.org/1999/xlink"
 aria-hidden="true"
 data-prefix="fas"
 data-icon="file-invoice"
 role="img">
 <defs>
  <style type="text/css">
   <![CDATA[
    .fil0 {fill:#FEFEFE}
   ]]>
  </style>
 </defs>
 <g id="Capa_x0020_1">
  <metadata id="CorelCorpID_0Corel-Layer"/>
  <path class="fil0" d="M15750 14850l-10500 0 0 3500 10500 0 0 -3500zm4867 -8258l-5354 -5359c-246,-246 -579,-383 -929,-383l-334 0 0 7000 7000 0 0 -334c0,-344 -137,-678 -383,-924zm-8367 1696l0 -7438 -10937 0c-728,0 -1313,585 -1313,1313l0 25375c0,727 585,1312 1313,1312l18375 0c727,0 1312,-585 1312,-1312l0 -17938 -7437 0c-722,0 -1313,-591 -1313,-1312zm-8750 -3500c0,-242 196,-438 438,-438l4375 0c241,0 437,196 437,438l0 875c0,241 -196,437 -437,437l-4375 0c-242,0 -438,-196 -438,-437l0 -875zm0 3500c0,-242 196,-438 438,-438l4375 0c241,0 437,196 437,438l0 875c0,241 -196,437 -437,437l-4375 0c-242,0 -438,-196 -438,-437l0 -875zm14000 16625c0,241 -196,437 -437,437l-4375 0c-242,0 -438,-196 -438,-437l0 -875c0,-242 196,-438 438,-438l4375 0c241,0 437,196 437,438l0 875zm0 -10938l0 5250c0,483 -392,875 -875,875l-12250 0c-483,0 -875,-392 -875,-875l0 -5250c0,-483 392,-875 875,-875l12250 0c483,0 875,392 875,875z"/>
 </g>
</svg>
