<?xml version="1.0" encoding="UTF-8"?>
<!DOCTYPE svg PUBLIC "-//W3C//DTD SVG 1.1//EN" "http://www.w3.org/Graphics/SVG/1.1/DTD/svg11.dtd">
<!-- Creator: CorelDRAW X7 -->
<svg xmlns="http://www.w3.org/2000/svg" xml:space="preserve" width="18.9005mm" height="18.7361mm" version="1.1" style="shape-rendering:geometricPrecision; text-rendering:geometricPrecision; image-rendering:optimizeQuality; fill-rule:evenodd; clip-rule:evenodd"
viewBox="0 0 195 193"
 xmlns:xlink="http://www.w3.org/1999/xlink"
 enable-background="new 0 0 1000 1000">
 <defs>
  <style type="text/css">
   <![CDATA[
    .fil0 {fill:white}
   ]]>
  </style>
 </defs>
 <g id="Capa_x0020_1">
  <metadata id="CorelCorpID_0Corel-Layer"/>
  <g id="_1801639069280">
   <g>
    <g>
     <path class="fil0" d="M93 1c-3,0 -5,2 -9,7 -5,7 -7,9 -10,10 -4,1 -6,0 -13,-2 -8,-3 -11,-3 -14,-2 -3,1 -6,4 -7,7 -1,1 -2,3 -2,9 -1,9 -2,11 -5,14 -2,2 -4,3 -11,5 -10,2 -13,4 -15,10 -1,4 0,6 4,14l3 8 0 3c0,5 -1,7 -7,13 -6,6 -7,9 -7,13 0,3 1,7 4,9 1,1 4,3 7,5 6,4 9,6 10,9 2,3 2,5 0,13 -1,8 -1,10 0,13 1,3 4,5 7,7 2,1 2,1 11,1 9,-1 9,0 11,0 4,2 6,5 9,12 1,4 3,8 4,8 2,3 6,6 10,6 3,0 6,-1 12,-6 11,-7 14,-7 25,0 7,6 10,7 15,5 3,-1 5,-2 7,-4 0,-1 2,-5 4,-9 3,-8 4,-9 8,-11l2 -2 10 0c9,0 9,0 12,-1 3,-2 6,-6 7,-10 0,-1 -1,-4 -1,-9 -2,-8 -2,-10 0,-13 1,-3 3,-5 9,-9 4,-2 7,-4 8,-5 2,-2 4,-5 4,-9 0,-4 -2,-7 -8,-13 -6,-7 -7,-9 -7,-14 0,-2 1,-3 4,-10 3,-5 4,-7 4,-9 0,-3 -1,-7 -3,-9 -2,-3 -5,-5 -13,-6 -8,-2 -10,-4 -12,-7 -2,-3 -2,-4 -3,-12 -1,-6 -1,-8 -2,-9 -1,-3 -4,-6 -7,-7 -4,-1 -7,-1 -14,2 -8,2 -10,3 -13,2 -3,-1 -6,-4 -10,-8 -6,-8 -8,-10 -13,-10 -2,0 -4,0 -5,1zm17 35c25,6 44,24 49,50 1,5 1,19 0,24 -5,25 -24,44 -50,50 -2,0 -5,0 -12,0 -6,0 -9,0 -12,0 -25,-6 -44,-24 -49,-49 -1,-5 -2,-17 -1,-22 4,-28 25,-48 52,-53 5,-1 18,-1 23,0z"/>
     <path class="fil0" d="M92 43c-24,2 -44,20 -49,44 -1,6 -1,15 0,22 4,19 17,35 36,41 11,4 26,4 37,0 13,-5 24,-14 31,-27 4,-8 6,-16 6,-25 0,-24 -15,-44 -37,-53 -7,-2 -17,-3 -24,-2zm28 32c4,2 5,4 5,7 0,2 0,1 -14,22 -8,12 -9,13 -11,14 -3,1 -8,1 -11,0 -2,-1 -3,-2 -9,-11 -4,-5 -8,-11 -9,-12 -3,-4 -2,-7 2,-10 3,-1 6,-2 8,-1 0,1 3,4 7,9 3,5 6,8 6,8 0,0 4,-5 9,-12 5,-7 9,-13 10,-14 1,-1 2,-1 3,-1 1,0 3,0 4,1z"/>
    </g>
   </g>
  </g>
 </g>
</svg>
