<?xml version="1.0" encoding="UTF-8"?>
<!DOCTYPE svg PUBLIC "-//W3C//DTD SVG 1.1//EN" "http://www.w3.org/Graphics/SVG/1.1/DTD/svg11.dtd">
<!-- Creator: CorelDRAW X7 -->
<svg xmlns="http://www.w3.org/2000/svg" xml:space="preserve" width="18.8311mm" height="16.9741mm" version="1.1" style="shape-rendering:geometricPrecision; text-rendering:geometricPrecision; image-rendering:optimizeQuality; fill-rule:evenodd; clip-rule:evenodd"
viewBox="0 0 190 172"
 xmlns:xlink="http://www.w3.org/1999/xlink"
 enable-background="new 0 0 1000 1000">
 <defs>
  <style type="text/css">
   <![CDATA[
    .fil0 {fill:white}
   ]]>
  </style>
 </defs>
 <g id="Capa_x0020_1">
  <metadata id="CorelCorpID_0Corel-Layer"/>
  <g id="_1801636872896">
   <g>
    <g>
     <path class="fil0" d="M71 7c-9,8 -17,24 -17,37 0,5 4,17 10,27 5,10 9,23 9,29 0,13 7,19 22,19 15,0 22,-6 22,-19 0,-5 5,-18 10,-28 15,-27 12,-50 -8,-65 -12,-9 -35,-9 -48,0z"/>
     <path class="fil0" d="M148 15c-4,5 -2,26 4,31 6,5 7,10 7,46 0,36 -1,41 -7,46 -7,7 -8,24 -2,30 6,6 9,4 9,-4 0,-7 1,-8 9,-8 8,0 10,1 10,8 0,8 3,10 9,4 6,-6 4,-23 -3,-30 -6,-5 -6,-10 -6,-46 0,-36 0,-41 6,-46 9,-7 8,-31 0,-32 -5,-1 -6,0 -6,7 0,7 -1,8 -10,8 -8,0 -9,-1 -9,-8 0,-8 -6,-11 -11,-6z"/>
     <path class="fil0" d="M55 114c-3,1 -4,10 -4,29l0 29 43 0 43 0 0 -16c0,-11 1,-17 6,-21 3,-3 6,-7 6,-10 0,-4 -18,-16 -20,-13 -1,1 -3,4 -5,8 -9,17 -50,16 -58,-1 -4,-8 -4,-8 -11,-5z"/>
     <path class="fil0" d="M15 137c-14,9 -15,11 -15,22l0 13 17 0 18 0 0 -23c0,-12 -1,-22 -2,-22 -2,0 -10,5 -18,10z"/>
    </g>
   </g>
  </g>
 </g>
</svg>
