<?xml version="1.0" encoding="UTF-8"?>
<!DOCTYPE svg PUBLIC "-//W3C//DTD SVG 1.1//EN" "http://www.w3.org/Graphics/SVG/1.1/DTD/svg11.dtd">
<!-- Creator: CorelDRAW X7 -->
<svg xmlns="http://www.w3.org/2000/svg" xml:space="preserve" width="16.997mm" height="15.3667mm" version="1.1" style="shape-rendering:geometricPrecision; text-rendering:geometricPrecision; image-rendering:optimizeQuality; fill-rule:evenodd; clip-rule:evenodd"
viewBox="0 0 2190 1980"
 xmlns:xlink="http://www.w3.org/1999/xlink"
 enable-background="new 0 0 1000 1000">
 <defs>
  <style type="text/css">
   <![CDATA[
    .fil0 {fill:#8F87E8}
   ]]>
  </style>
 </defs>
 <g id="Capa_x0020_1">
  <metadata id="CorelCorpID_0Corel-Layer"/>
  <g id="_2167723311552">
   <g>
    <path class="fil0" d="M817 161c-561,7 -817,320 -817,608 0,175 48,269 78,310l0 717c1,145 99,184 150,184l1180 0c51,0 149,-39 150,-185l0 -716c30,-41 78,-135 78,-310 0,-288 -256,-601 -819,-608zm629 846l-21 17 0 770c0,30 -7,51 -18,53l-1178 0c-11,-2 -18,-23 -18,-52l-1 -739 5 -28 -24 -19c-1,-1 -58,-63 -58,-240 0,-225 215,-469 684,-475 471,6 686,250 686,475 0,175 -57,238 -57,238zm-338 -956c-85,1 -162,9 -232,23 199,10 361,57 488,128 298,74 437,268 437,450 0,180 -59,243 -59,243l-19 18 0 764c0,36 -12,41 -28,49l-48 16 0 53c0,31 -4,59 -11,84l63 -23c55,-19 142,-37 143,-178l0 -718c29,-39 78,-132 78,-308 0,-285 -254,-594 -812,-601zm310 -51c158,39 282,107 375,190 192,89 283,240 283,383 0,172 -56,232 -56,232 0,0 0,0 0,0l-19 17 0 730c0,34 -11,39 -26,47l-44 15 0 64c0,24 -3,45 -6,64l54 -20c52,-18 135,-35 137,-169l0 -685c27,-38 74,-126 74,-295 0,-270 -242,-565 -772,-573z"/>
   </g>
  </g>
 </g>
</svg>
