<?xml version="1.0" encoding="UTF-8"?>
<!DOCTYPE svg PUBLIC "-//W3C//DTD SVG 1.1//EN" "http://www.w3.org/Graphics/SVG/1.1/DTD/svg11.dtd">
<!-- Creator: CorelDRAW X7 -->
<svg xmlns="http://www.w3.org/2000/svg" xml:space="preserve" width="15.8863mm" height="20.1243mm" version="1.1" style="shape-rendering:geometricPrecision; text-rendering:geometricPrecision; image-rendering:optimizeQuality; fill-rule:evenodd; clip-rule:evenodd"
viewBox="0 0 140 178"
 xmlns:xlink="http://www.w3.org/1999/xlink"
 enable-background="new 0 0 1000 1000">
 <defs>
  <style type="text/css">
   <![CDATA[
    .fil0 {fill:white}
   ]]>
  </style>
 </defs>
 <g id="Capa_x0020_1">
  <metadata id="CorelCorpID_0Corel-Layer"/>
  <g id="_1801636678976">
   <g>
    <path class="fil0" d="M0 164l0 -131c0,-8 6,-14 14,-14l21 0c0,0 5,-1 5,-7 0,-7 7,-12 14,-12l32 0c7,0 15,5 15,12 0,6 4,7 4,7l21 0c8,0 14,6 14,14l0 131c0,7 -6,14 -14,14l-112 0c-8,0 -14,-7 -14,-14zm61 -150c-7,0 -12,5 -12,12 0,6 -5,11 -5,11l52 0c0,0 -5,-5 -5,-11 0,-7 -5,-12 -12,-12l-18 0zm-35 37l7 -18 -19 0 0 131 112 0 0 -131 -18 0 7 18 -89 0zm1 67l-3 -3c-1,-1 -1,-2 0,-3l9 -9c1,0 1,0 2,0 0,0 1,0 1,1l25 26 42 -54c1,-1 1,-1 2,-1l1 0 10 8c1,0 1,1 1,1 0,1 0,1 -1,2l-54 70 -35 -38z"/>
   </g>
  </g>
 </g>
</svg>
