<?xml version="1.0" encoding="UTF-8"?>
<!DOCTYPE svg PUBLIC "-//W3C//DTD SVG 1.1//EN" "http://www.w3.org/Graphics/SVG/1.1/DTD/svg11.dtd">
<!-- Creator: CorelDRAW X7 -->
<svg xmlns="http://www.w3.org/2000/svg" xml:space="preserve" width="90.648mm" height="95.1436mm" version="1.1" style="shape-rendering:geometricPrecision; text-rendering:geometricPrecision; image-rendering:optimizeQuality; fill-rule:evenodd; clip-rule:evenodd"
viewBox="0 0 4209 4418"
 xmlns:xlink="http://www.w3.org/1999/xlink">
 <defs>
  <style type="text/css">
   <![CDATA[
    .fil0 {fill:#FEFEFE}
   ]]>
  </style>
 </defs>
 <g id="Capa_x0020_1">
  <metadata id="CorelCorpID_0Corel-Layer"/>
  <path class="fil0" d="M2105 0l1920 0c101,0 184,83 184,185l0 2128c0,1158 -947,2105 -2104,2105l0 0c-1158,0 -2105,-947 -2105,-2105l0 -208c0,-1158 947,-2105 2105,-2105zm-910 1640c-77,172 -171,401 -171,634 0,504 307,992 642,992 557,0 1533,-801 1882,-1699 39,-99 107,-298 107,-394 0,-17 -17,-26 -46,-26 -62,2 -548,17 -597,17 -78,11 -88,62 -95,90 -178,780 -812,1662 -1016,1662 -67,0 -105,-194 -105,-314 0,-415 93,-708 428,-1275 15,-26 22,-47 22,-69 0,-102 -163,-124 -366,-124 -514,0 -973,176 -973,285 0,37 33,68 91,77 99,16 205,34 205,102 0,14 -3,30 -8,43l0 -1z"/>
 </g>
</svg>
