<?xml version="1.0" encoding="UTF-8"?>
<!DOCTYPE svg PUBLIC "-//W3C//DTD SVG 1.1//EN" "http://www.w3.org/Graphics/SVG/1.1/DTD/svg11.dtd">
<!-- Creator: CorelDRAW X7 -->
<svg xmlns="http://www.w3.org/2000/svg" xml:space="preserve" width="19.8011mm" height="15.5982mm" version="1.1" style="shape-rendering:geometricPrecision; text-rendering:geometricPrecision; image-rendering:optimizeQuality; fill-rule:evenodd; clip-rule:evenodd"
viewBox="0 0 317 249"
 xmlns:xlink="http://www.w3.org/1999/xlink"
 enable-background="new 0 0 1000 1000">
 <defs>
  <style type="text/css">
   <![CDATA[
    .fil0 {fill:#8F87E8}
   ]]>
  </style>
 </defs>
 <g id="Capa_x0020_1">
  <metadata id="CorelCorpID_0Corel-Layer"/>
  <g id="_2167723319424">
   <g>
    <path class="fil0" d="M95 249c-11,0 -24,0 -34,-1 -16,-1 -29,-4 -39,-7 -13,-5 -20,-11 -22,-19 -2,-14 13,-35 29,-48 22,-20 39,-25 39,-25 4,-1 7,0 10,3 0,1 6,6 18,6 3,0 6,0 8,-1 28,-4 66,-32 110,-80 34,-37 59,-73 60,-73 2,-4 6,-5 10,-3 2,0 18,7 26,22 6,12 8,24 6,39 -2,13 -7,27 -17,47 -2,5 -6,21 -9,72 -2,29 -3,56 -3,56 0,5 -4,9 -8,9l-9 0c-5,0 -9,-4 -9,-8 0,-1 -1,-26 -3,-52 -3,-50 -6,-59 -6,-60 -1,-3 -3,-5 -4,-5 0,0 -2,0 -7,4 -2,3 -7,15 -12,24 -16,34 -37,80 -63,91 -19,8 -49,9 -71,9zm-77 -30c2,2 13,9 44,11 10,1 22,2 33,2 28,0 51,-3 64,-9 5,-2 15,-9 28,-31 10,-16 19,-35 26,-50 8,-17 12,-25 16,-29 6,-6 13,-10 19,-10 5,0 15,2 21,17 0,2 2,7 5,35 2,-27 5,-45 9,-54 9,-18 13,-31 15,-41 2,-11 0,-20 -4,-29 -2,-5 -7,-8 -10,-11 -9,13 -31,40 -57,69 -47,52 -88,81 -120,86 -3,1 -7,1 -11,1 -13,0 -22,-4 -27,-8 -5,2 -16,8 -29,19 -16,14 -22,28 -22,32z"/>
    <g>
     <path class="fil0" d="M22 202c0,0 0,0 0,0l0 0zm0 0l0 0 0 0z"/>
    </g>
    <path class="fil0" d="M104 218c-3,0 -5,0 -8,0 -26,-1 -45,-5 -56,-9 -7,-2 -12,-4 -16,-6 -4,-2 -8,-5 -8,-9 0,-3 2,-6 5,-6 3,0 5,1 6,3 4,4 29,14 70,16 24,1 53,-3 92,-13 3,-1 6,1 7,4 0,4 -1,7 -5,7 -36,9 -64,13 -87,13z"/>
   </g>
  </g>
 </g>
</svg>
