<?xml version="1.0" encoding="UTF-8"?>
<!DOCTYPE svg PUBLIC "-//W3C//DTD SVG 1.1//EN" "http://www.w3.org/Graphics/SVG/1.1/DTD/svg11.dtd">
<!-- Creator: CorelDRAW X7 -->
<svg xmlns="http://www.w3.org/2000/svg" xml:space="preserve" width="38.3918mm" height="10.1268mm" version="1.1" style="shape-rendering:geometricPrecision; text-rendering:geometricPrecision; image-rendering:optimizeQuality; fill-rule:evenodd; clip-rule:evenodd"
viewBox="0 0 4066 1073"
 xmlns:xlink="http://www.w3.org/1999/xlink">
 <defs>
  <style type="text/css">
   <![CDATA[
    .fil0 {fill:#00A0E3}
    .fil1 {fill:#FEFEFE;fill-rule:nonzero}
    .fil2 {fill:#898989;fill-rule:nonzero}
   ]]>
  </style>
 </defs>
 <g id="Capa_x0020_1">
  <metadata id="CorelCorpID_0Corel-Layer"/>
  <path class="fil0" d="M511 0l466 0c25,0 45,20 45,45l0 517c0,281 -230,511 -511,511l0 0c-281,0 -511,-230 -511,-511l0 -51c0,-281 230,-511 511,-511z"/>
  <path class="fil1" d="M290 398c-19,42 -41,97 -41,154 0,123 74,241 155,241 136,0 373,-195 457,-413 10,-24 26,-72 26,-95 0,-4 -4,-6 -11,-6 -15,0 -133,4 -145,4 -19,2 -21,15 -23,21 -43,190 -197,404 -246,404 -17,0 -26,-47 -26,-76 0,-101 23,-172 104,-310 4,-6 5,-11 5,-17 0,-24 -39,-30 -89,-30 -124,0 -236,43 -236,70 0,8 8,16 22,18 24,4 50,8 50,25 0,3 -1,7 -2,10l0 0z"/>
  <path class="fil2" d="M1104 186c0,-13 5,-24 14,-34 10,-10 22,-14 35,-14 14,0 25,4 35,14 9,10 14,22 14,35 0,14 -4,25 -14,35 -9,9 -21,14 -35,14 -13,0 -25,-5 -35,-14 -9,-10 -14,-21 -14,-36zm16 582l0 -392 67 0 0 392 -67 0z"/>
  <path id="1" class="fil2" d="M1287 702l58 -38c11,21 24,36 41,47 17,10 36,15 59,15 22,0 40,-5 53,-16 14,-11 21,-25 21,-43 0,-14 -5,-25 -14,-34 -10,-9 -26,-18 -48,-25l-11 -4c-96,-33 -143,-74 -143,-124 0,-35 12,-63 38,-85 26,-22 59,-33 100,-33 35,0 64,6 88,20 24,14 42,33 52,58l-54 33c-8,-18 -20,-32 -36,-41 -15,-10 -33,-15 -54,-15 -20,0 -36,6 -48,16 -13,11 -19,26 -19,43 0,24 26,44 78,60 10,4 18,6 24,8 42,13 72,29 88,47 17,17 25,40 25,69 0,37 -13,68 -39,91 -27,23 -61,34 -104,34 -36,0 -67,-7 -93,-21 -26,-13 -46,-34 -62,-62z"/>
  <path id="2" class="fil2" d="M1674 186c0,-13 5,-24 15,-34 9,-10 21,-14 35,-14 13,0 25,4 34,14 10,10 15,22 15,35 0,14 -5,25 -14,35 -10,9 -21,14 -35,14 -14,0 -26,-5 -35,-14 -10,-10 -15,-21 -15,-36zm16 582l0 -392 68 0 0 392 -68 0z"/>
  <path id="3" class="fil2" d="M1939 573c0,42 14,77 42,106 27,29 61,43 101,43 39,0 72,-14 100,-43 27,-29 41,-64 41,-106 0,-41 -14,-76 -41,-105 -28,-29 -61,-43 -100,-43 -40,0 -74,14 -102,43 -27,29 -41,64 -41,105zm-71 0c0,-29 5,-56 16,-82 10,-25 26,-48 46,-68 20,-20 43,-35 69,-46 26,-10 53,-15 83,-15 28,0 55,5 81,15 26,11 49,26 70,47 20,20 35,42 46,68 11,25 16,53 16,81 0,29 -5,56 -16,81 -11,25 -26,48 -46,68 -21,20 -45,36 -71,47 -25,11 -52,16 -80,16 -29,0 -57,-5 -83,-16 -26,-11 -49,-26 -69,-46 -20,-21 -36,-44 -46,-69 -11,-25 -16,-52 -16,-81z"/>
  <path id="4" class="fil2" d="M2399 768l0 -392 66 0 0 60c17,-25 37,-44 61,-56 24,-12 51,-18 82,-18 47,0 83,12 109,36 26,25 39,59 39,103l0 267 -68 0 0 -231c0,-40 -9,-69 -26,-88 -16,-20 -42,-29 -77,-29 -20,0 -38,3 -55,11 -16,7 -30,17 -41,31 -8,10 -14,22 -17,35 -4,13 -6,36 -6,68l0 203 -67 0z"/>
  <polygon id="5" class="fil2" points="3130,362 3247,644 3353,376 3428,376 3254,793 3125,491 2996,793 2820,376 2895,376 3000,644 3119,362 "/>
  <path id="6" class="fil2" d="M3484 186c0,-13 5,-24 15,-34 10,-10 21,-14 35,-14 13,0 25,4 35,14 9,10 14,22 14,35 0,14 -5,25 -14,35 -10,9 -21,14 -35,14 -14,0 -25,-5 -35,-14 -10,-10 -15,-21 -15,-36zm16 582l0 -392 68 0 0 392 -68 0z"/>
  <path id="7" class="fil2" d="M3710 768l0 -392 65 0 0 60c17,-25 38,-44 61,-56 24,-12 52,-18 83,-18 46,0 82,12 108,36 26,25 39,59 39,103l0 267 -68 0 0 -231c0,-40 -9,-69 -25,-88 -17,-20 -43,-29 -78,-29 -20,0 -38,3 -54,11 -17,7 -31,17 -41,31 -9,10 -15,22 -18,35 -4,13 -6,36 -6,68l0 203 -66 0z"/>
 </g>
</svg>
